#!OML:ASF E:\emotionWalksFemale\Project 1\Capture day 1\Session 1\Female1.ASF
:FULLY-SPECIFIED
:DEGREES
189
root 10.2735 13.7651 19.7632 549.287 -4.35654 -175.945
lowerback 18.0401 1.43054 -1.08185
upperback -2.67343 1.73583 0.641117
thorax -13.2395 0.911748 0.827998
lowerneck -10.1889 -0.416648 -4.36145
upperneck -9.34666 -0.81772 7.59058
head -1.19021 -0.747939 3.22012
rclavicle -4.96962e-016 -5.56597e-015
rhumerus 11.3631 9.63339 -33.8484
rradius 47.7266
rwrist -0.809809
rhand -2.59752 -53.0183
rfingers 7.12502
rthumb 23.1002 -81.6535
lclavicle -4.96962e-016 -5.56597e-015
lhumerus 8.42902 -6.56372 41.5373
lradius 33.5132
lwrist -14.0605
lhand 8.00106 -42.7836
lfingers 7.12502
lthumb 33.228 -15.8318
rfemur -48.2107 8.43092 17.5835
rtibia 61.997
rfoot -22.7778 -17.214
rtoes -22.6818
lfemur -43.7479 -1.67508 -21.6765
ltibia 68.5624
lfoot -34.7103 25.886
ltoes -40.5774
190
root 10.2465 13.8036 19.7679 549.159 -3.86681 -175.937
lowerback 18.2105 1.48602 -0.972871
upperback -2.7384 1.85201 0.787073
thorax -13.4212 0.964245 0.891223
lowerneck -10.407 -0.511231 -4.75107
upperneck -8.90624 -0.883688 7.57773
head -1.0038 -0.742992 3.28142
rclavicle 3.93594e-014 3.57812e-015
rhumerus 11.4798 9.09599 -32.814
rradius 46.9136
rwrist -0.135706
rhand -2.01368 -52.9422
rfingers 7.12502
rthumb 23.6603 -81.5062
lclavicle 3.93594e-014 3.57812e-015
lhumerus 8.87865 -6.98202 41.4662
lradius 33.5552
lwrist -13.87
lhand 8.56032 -42.687
lfingers 7.12502
lthumb 33.7596 -15.8502
rfemur -47.6908 8.70261 17.4641
rtibia 61.0431
rfoot -22.3209 -16.8596
rtoes -23.1822
lfemur -43.1404 -1.2708 -21.8166
ltibia 67.6857
lfoot -34.4212 25.8394
ltoes -40.3788
191
root 10.216 13.872 19.7703 549.067 -3.47431 -175.901
lowerback 18.1543 1.3977 -0.826632
upperback -2.84281 1.78152 0.878688
thorax -13.5058 0.926117 0.931532
lowerneck -10.4196 -0.464806 -4.88019
upperneck -8.47423 -0.78431 7.65121
head -0.86599 -0.667235 3.32983
rclavicle 3.58806e-014 8.34896e-015
rhumerus 11.7455 8.78397 -32.2341
rradius 46.0422
rwrist 0.540382
rhand -1.62216 -52.4918
rfingers 7.12502
rthumb 24.0357 -81.0067
lclavicle 3.58806e-014 8.34896e-015
lhumerus 8.9207 -7.76772 40.9697
lradius 33.7689
lwrist -13.0492
lhand 8.89133 -42.7403
lfingers 7.12502
lthumb 34.0741 -15.973
rfemur -47.0207 8.86598 17.4014
rtibia 59.9266
rfoot -21.9014 -16.4849
rtoes -23.1414
lfemur -42.3854 -0.910121 -21.8889
ltibia 66.6004
lfoot -34.2741 25.4842
ltoes -39.8913
192
root 10.185 13.9358 19.7655 548.916 -3.10117 -175.883
lowerback 17.8714 1.28313 -0.724402
upperback -2.8277 1.67117 1.03776
thorax -13.3191 0.87463 1.08881
lowerneck -10.5299 -0.402085 -4.99
upperneck -8.01044 -0.669243 7.46444
head -0.704218 -0.580947 3.28464
rclavicle 4.22417e-014 1.39149e-014
rhumerus 11.9131 8.94684 -31.3684
rradius 45.6233
rwrist 0.66848
rhand -1.29955 -52.2529
rfingers 7.12502
rthumb 24.3451 -80.7267
lclavicle 4.22417e-014 1.39149e-014
lhumerus 8.71812 -8.61182 40.4472
lradius 34.0796
lwrist -12.0595
lhand 9.28356 -42.8169
lfingers 7.12502
lthumb 34.4465 -16.1334
rfemur -46.2787 8.8627 17.3842
rtibia 58.7914
rfoot -21.5156 -15.9541
rtoes -22.9037
lfemur -41.5233 -0.546019 -21.9719
ltibia 65.4729
lfoot -34.2045 24.8795
ltoes -39.0591
193
root 10.1557 14.0069 19.7542 548.697 -2.74433 -175.929
lowerback 17.6896 1.26491 -0.645169
upperback -2.85232 1.67342 1.10439
thorax -13.2395 0.872984 1.12022
lowerneck -10.467 -0.379414 -4.82534
upperneck -7.70123 -0.640695 7.06323
head -0.618363 -0.551295 3.11236
rclavicle -2.18663e-015 -1.70955e-014
rhumerus 11.6219 9.00874 -30.6954
rradius 45.2884
rwrist 0.963438
rhand -0.941893 -52.4615
rfingers 7.12502
rthumb 24.6879 -80.8888
lclavicle -2.18663e-015 -1.70955e-014
lhumerus 8.608 -9.91206 39.97
lradius 34.3784
lwrist -11.2395
lhand 9.8296 -42.5745
lfingers 7.12502
lthumb 34.9647 -16.0102
rfemur -45.342 8.88772 17.3025
rtibia 57.5395
rfoot -21.2197 -15.3978
rtoes -22.5349
lfemur -40.504 -0.140761 -22.1401
ltibia 64.2012
lfoot -33.861 24.5474
ltoes -38.4167
194
root 10.1279 14.077 19.738 548.47 -2.37873 -176.008
lowerback 17.5805 1.17176 -0.630227
upperback -3.05818 1.56362 1.15697
thorax -13.4118 0.826291 1.20277
lowerneck -10.0819 -0.229731 -4.68028
upperneck -7.35242 -0.42781 6.84313
head -0.584526 -0.426316 3.01317
rclavicle 6.80837e-015 8.54774e-015
rhumerus 11.3854 9.19555 -30.5329
rradius 44.8484
rwrist 1.68115
rhand -0.774427 -52.2699
rfingers 7.12502
rthumb 24.8484 -80.6752
lclavicle 6.80837e-015 8.54774e-015
lhumerus 7.98401 -11.4356 39.5185
lradius 34.7284
lwrist -10.6522
lhand 10.3679 -42.1191
lfingers 7.12502
lthumb 35.4752 -15.6754
rfemur -44.3498 8.94735 17.1797
rtibia 56.2483
rfoot -20.9478 -14.8493
rtoes -22.2511
lfemur -39.4243 0.33628 -22.3564
ltibia 62.8533
lfoot -33.4402 24.2847
ltoes -38.0318
